<svg width="1156.000000pt" height="128.000000pt" viewBox="0 0 1156.000000 128.000000" preserveAspectRatio="xMidYMid meet">
<g transform="translate(0.000000,128.000000) scale(0.100000,-0.100000)"
fill="#000000" stroke="none">
<path d="M0 640 l0 -640 640 0 640 0 0 640 0 640 -640 0 -640 0 0 -640z m280
123 l0 -258 100 105 c54 58 99 108 100 111 0 4 -11 10 -25 13 -53 14 -22 26
65 26 88 0 118 -12 62 -25 -17 -3 -59 -36 -102 -80 l-73 -74 50 -78 c27 -43
67 -106 89 -141 28 -45 47 -64 67 -68 15 -4 27 -13 27 -20 0 -11 -22 -14 -100
-14 -82 0 -100 3 -100 15 0 8 9 15 20 15 11 0 20 3 20 6 0 7 -25 48 -88 147
l-44 69 -34 -33 c-34 -33 -35 -35 -32 -109 3 -69 5 -75 26 -78 12 -2 22 -10
22 -18 0 -11 -20 -14 -100 -14 -80 0 -100 3 -100 14 0 9 12 16 28 18 l27 3 3
348 c2 337 2 347 -17 347 -26 0 -51 10 -51 21 0 5 36 9 80 9 l80 0 0 -257z
m842 -105 l3 -363 28 -3 c15 -2 27 -9 27 -18 0 -11 -16 -14 -70 -14 -56 0 -70
3 -70 15 0 19 -15 19 -45 -1 -32 -21 -121 -29 -171 -15 -52 14 -109 74 -124
131 -12 46 -15 172 -4 216 30 124 123 183 267 170 l67 -6 0 110 c0 110 0 110
-24 110 -31 0 -56 10 -56 21 0 5 38 9 85 9 l85 0 2 -362z"/>
<path d="M847 710 c-40 -32 -62 -102 -62 -200 0 -100 22 -163 66 -186 29 -15
95 -18 148 -8 l31 6 0 204 0 204 -79 0 c-63 0 -83 -4 -104 -20z"/>
<path d="M1800 1076 c0 -9 12 -16 33 -18 l32 -3 3 -332 2 -332 -27 -3 c-14 -2
-28 -9 -31 -15 -3 -10 21 -13 98 -13 77 0 101 3 98 13 -3 6 -14 13 -26 15 -20
3 -22 9 -22 76 0 64 3 75 29 106 l28 35 67 -103 c36 -56 66 -105 66 -107 0 -3
-9 -5 -20 -5 -11 0 -20 -7 -20 -15 0 -12 17 -15 95 -15 78 0 95 3 95 15 0 9
-9 15 -22 15 -18 0 -40 27 -108 132 -47 72 -87 136 -89 141 -6 16 130 145 160
151 59 12 28 26 -56 26 -85 0 -108 -11 -58 -27 26 -9 26 -9 -68 -111 l-94
-101 -3 244 -2 245 -80 0 c-63 0 -80 -3 -80 -14z"/>
<path d="M5220 1076 c0 -10 13 -16 38 -18 l37 -3 3 -105 3 -105 -78 3 c-123 6
-183 -21 -226 -101 -18 -36 -22 -58 -22 -147 0 -93 3 -111 25 -155 36 -70 91
-98 177 -92 36 3 74 12 89 22 25 16 28 16 36 1 11 -20 142 -24 136 -4 -3 7
-15 15 -29 18 l-24 6 -3 347 -2 347 -80 0 c-63 0 -80 -3 -80 -14z m78 -463 l2
-192 -37 -7 c-135 -27 -192 19 -201 162 -6 93 17 173 59 209 29 23 38 26 103
23 l71 -3 3 -192z"/>
<path d="M6292 1078 c3 -7 20 -15 39 -18 l34 -5 3 -332 2 -332 -37 -3 c-20 -2
-38 -9 -41 -15 -3 -10 26 -13 123 -13 97 0 126 3 123 13 -3 6 -21 13 -41 15
l-37 3 0 350 0 349 -86 0 c-64 0 -85 -3 -82 -12z"/>
<path d="M2750 1031 c-24 -46 -3 -83 47 -83 28 0 53 25 53 53 0 45 -79 68
-100 30z"/>
<path d="M3746 1034 c-32 -32 -9 -86 37 -86 50 0 71 37 47 83 -13 23 -62 26
-84 3z"/>
<path d="M6661 1036 c-20 -23 -9 -69 18 -83 29 -14 55 -4 71 28 26 47 -55 96
-89 55z"/>
<path d="M3455 896 c-18 -41 -31 -56 -54 -64 -40 -14 -40 -32 -1 -32 l30 0 0
-194 c0 -188 1 -196 23 -221 14 -17 36 -28 62 -31 51 -7 119 15 123 40 3 16
-1 17 -35 11 -31 -5 -45 -2 -64 14 -24 19 -24 22 -27 200 l-3 181 55 0 c49 0
56 2 56 20 0 18 -7 20 -55 20 l-55 0 0 55 c0 74 -23 74 -55 1z"/>
<path d="M8003 896 c-20 -41 -33 -56 -56 -63 -45 -12 -46 -33 -3 -33 l36 0 0
-196 0 -196 29 -29 c23 -22 38 -29 68 -28 52 0 107 21 111 41 3 13 -5 16 -48
15 -78 -3 -80 3 -80 215 l0 178 55 0 c48 0 55 2 55 20 0 18 -7 20 -55 20 l-55
0 0 55 c0 73 -21 73 -57 1z"/>
<path d="M7791 873 c-40 -24 -52 -26 -135 -24 -78 2 -97 -1 -135 -21 -53 -27
-81 -74 -81 -136 0 -53 20 -102 54 -133 l26 -25 -40 -39 c-22 -21 -40 -47 -40
-56 0 -10 14 -31 31 -48 l31 -31 -31 -25 c-60 -51 -61 -123 -1 -167 63 -46
237 -43 324 5 117 64 115 224 -2 257 -20 5 -84 10 -142 10 -122 0 -136 7 -113
55 l15 32 77 -1 c88 -1 131 18 168 74 28 40 31 129 8 174 -15 29 -15 31 18 65
19 20 32 42 30 49 -6 16 -11 15 -62 -15z m-78 -94 c12 -16 17 -39 17 -91 0
-64 -3 -72 -29 -99 -47 -47 -139 -31 -161 27 -14 35 -12 121 1 147 31 58 129
67 172 16z m57 -432 c53 -26 31 -120 -36 -152 -53 -25 -167 -24 -202 2 -35 26
-41 84 -12 131 l20 32 102 0 c63 0 113 -5 128 -13z"/>
<path d="M2534 820 c-32 -16 -60 -30 -61 -30 -2 0 -3 11 -3 25 0 24 -2 25 -71
25 -51 0 -70 -3 -67 -12 3 -7 15 -15 29 -18 l24 -6 0 -204 0 -204 -24 -6 c-14
-3 -26 -11 -29 -18 -3 -9 24 -12 108 -12 85 0 111 3 108 13 -3 6 -20 14 -39
17 l-34 5 -3 181 -2 182 44 11 c66 16 79 14 98 -20 25 -43 38 -28 38 42 0 58
0 59 -29 59 -15 0 -55 -13 -87 -30z"/>
<path d="M3052 830 c-42 -26 -66 -81 -59 -135 7 -52 55 -94 133 -119 63 -20
114 -62 114 -95 0 -76 -79 -113 -164 -77 -24 10 -38 25 -47 50 -21 57 -39 46
-39 -23 0 -68 -1 -67 117 -77 118 -11 193 30 209 111 15 82 -28 140 -132 177
-81 28 -114 56 -114 98 0 45 31 70 86 70 57 0 79 -12 92 -50 17 -47 32 -36 32
24 0 64 -4 66 -120 66 -58 0 -83 -5 -108 -20z"/>
<path d="M4063 843 c-33 -4 -33 -5 -33 -59 0 -42 3 -54 15 -54 9 0 18 12 21
29 7 35 39 51 99 51 58 0 75 -23 75 -106 l0 -61 -83 -5 c-136 -9 -180 -48
-179 -157 1 -117 100 -166 218 -106 27 14 50 25 50 25 1 0 4 -9 7 -20 4 -17
14 -20 72 -20 49 0 66 3 63 13 -3 6 -17 13 -31 15 l-27 3 0 180 c0 208 -8 241
-64 264 -33 14 -125 18 -203 8z m177 -321 c0 -85 -1 -89 -25 -100 -34 -16
-107 -15 -129 1 -38 28 -29 144 12 163 10 4 44 11 77 14 33 4 61 8 63 8 1 1 2
-38 2 -86z"/>
<path d="M4631 830 c-52 -24 -61 -25 -61 -5 0 12 -14 15 -70 15 -74 0 -90 -11
-40 -29 l30 -10 -2 -203 -3 -202 -24 -6 c-14 -3 -26 -11 -29 -18 -3 -9 23 -12
103 -12 81 0 106 3 103 13 -3 6 -18 14 -34 17 l-29 5 -3 191 -2 192 22 6 c13
3 49 6 80 6 49 0 59 -3 77 -26 19 -25 21 -40 21 -200 l0 -173 -27 -3 c-14 -2
-28 -9 -31 -15 -3 -10 21 -13 97 -13 83 0 101 3 101 15 0 9 -9 15 -24 15 l-24
0 -4 188 c-4 195 -9 220 -52 254 -29 24 -119 23 -175 -2z"/>
<path d="M5583 843 c-33 -4 -33 -5 -33 -59 0 -40 4 -54 14 -54 8 0 17 13 21
29 7 33 40 51 94 51 61 0 75 -17 79 -97 l4 -70 -84 -5 c-128 -8 -172 -39 -184
-130 -9 -67 22 -132 71 -148 47 -15 117 -7 162 20 42 25 43 25 43 0 0 -18 7
-20 71 -20 52 0 70 3 67 13 -3 6 -17 13 -31 15 l-27 3 0 167 c0 184 -8 227
-46 263 -22 21 -36 24 -107 25 -45 1 -97 0 -114 -3z m177 -322 l0 -89 -31 -11
c-18 -6 -51 -11 -75 -11 -54 0 -74 25 -74 91 0 69 21 90 101 99 35 4 67 8 72
9 4 0 7 -39 7 -88z"/>
<path d="M6153 821 c-64 -30 -73 -30 -73 1 0 16 -9 18 -70 18 -72 0 -95 -15
-40 -26 l30 -6 0 -209 0 -208 -27 -3 c-14 -2 -28 -9 -31 -15 -3 -10 24 -13
113 -13 89 0 116 3 113 13 -3 6 -21 13 -41 15 l-37 3 0 184 0 184 38 10 c61
18 80 14 97 -19 24 -47 35 -36 35 35 0 61 -1 65 -22 65 -13 0 -51 -13 -85 -29z"/>
<path d="M7076 828 c-44 -20 -49 -20 -58 -5 -7 13 -24 17 -74 17 -48 0 -65 -3
-62 -12 3 -7 14 -14 26 -16 22 -3 22 -6 22 -212 0 -206 0 -209 -22 -212 -12
-2 -23 -9 -26 -15 -3 -10 21 -13 98 -13 77 0 101 3 98 13 -3 6 -17 13 -31 15
l-27 3 0 193 c0 222 -8 206 101 206 91 0 94 -6 94 -218 l0 -177 -29 -5 c-16
-3 -31 -11 -34 -17 -3 -10 22 -13 103 -13 80 0 106 3 103 12 -3 7 -15 15 -29
18 l-24 6 -5 198 -5 198 -33 29 c-27 24 -41 29 -85 29 -31 -1 -72 -9 -101 -22z"/>
<path d="M8355 836 c-41 -18 -92 -77 -104 -123 -15 -51 -14 -176 1 -226 52
-173 329 -185 405 -18 12 25 17 66 17 136 1 105 -15 156 -61 197 -50 46 -189
64 -258 34z m164 -40 c45 -24 66 -85 66 -191 -1 -154 -35 -210 -130 -210 -98
0 -131 62 -123 232 5 108 19 147 57 168 34 18 95 19 130 1z"/>
<path d="M8950 830 c-55 -23 -70 -24 -70 -5 0 12 -14 15 -70 15 -72 0 -95 -15
-40 -26 l30 -6 0 -209 0 -208 -27 -3 c-14 -2 -28 -9 -31 -15 -3 -10 22 -13
103 -13 81 0 106 3 103 13 -3 6 -17 13 -31 15 l-27 3 0 193 c0 221 -7 206 98
206 93 0 105 -31 100 -260 l-3 -135 -29 -5 c-16 -3 -31 -11 -34 -17 -3 -10 22
-13 103 -13 80 0 106 3 103 12 -3 7 -15 15 -29 18 l-24 6 -5 189 c-5 198 -10
220 -52 249 -30 22 -112 19 -168 -4z"/>
<path d="M9659 827 c-67 -36 -101 -98 -107 -196 -11 -184 71 -283 233 -280 66
1 136 20 149 41 15 25 8 27 -59 17 -173 -25 -247 50 -232 233 7 77 36 140 74
157 30 14 103 14 137 1 19 -7 28 -21 37 -55 18 -72 39 -59 39 24 l0 69 -31 6
c-17 3 -68 6 -114 6 -66 0 -90 -4 -126 -23z"/>
<path d="M10135 836 c-41 -18 -92 -77 -104 -123 -15 -51 -14 -176 1 -226 52
-173 329 -185 405 -18 12 25 17 66 17 136 1 105 -15 156 -61 197 -50 46 -189
64 -258 34z m164 -40 c45 -24 66 -85 66 -191 -1 -154 -35 -210 -130 -210 -98
0 -131 62 -123 232 5 108 19 147 57 168 34 18 95 19 130 1z"/>
<path d="M10725 829 c-44 -18 -50 -19 -61 -5 -8 12 -29 16 -78 16 -69 0 -90
-16 -36 -26 l30 -6 0 -209 0 -208 -27 -3 c-14 -2 -28 -9 -31 -15 -3 -10 23
-13 108 -13 85 0 111 3 108 13 -3 6 -19 13 -36 15 l-32 3 0 193 0 194 31 6
c62 12 118 7 138 -13 28 -28 32 -65 29 -231 l-3 -145 -29 -5 c-16 -3 -31 -11
-34 -17 -3 -10 23 -13 108 -13 85 0 111 3 108 13 -3 6 -18 14 -34 17 l-29 5
-3 191 -2 191 37 7 c73 11 118 7 141 -14 21 -20 22 -29 22 -200 l0 -179 -32
-3 c-17 -2 -33 -9 -36 -15 -3 -10 23 -13 108 -13 85 0 111 3 108 13 -3 6 -17
13 -31 15 l-27 3 0 172 c0 190 -8 236 -47 267 -37 29 -120 27 -197 -5 l-59
-24 -29 24 c-37 32 -111 33 -183 4z"/>
<path d="M2690 831 c0 -11 25 -21 51 -21 19 0 19 -8 17 -207 l-3 -208 -34 -5
c-19 -3 -36 -11 -39 -17 -3 -10 26 -13 122 -13 76 0 126 4 126 10 0 9 -18 15
-65 22 -19 3 -20 12 -23 226 l-2 222 -75 0 c-41 0 -75 -4 -75 -9z"/>
<path d="M3680 831 c0 -11 25 -21 51 -21 18 0 19 -10 19 -209 l0 -210 -37 -3
c-20 -2 -38 -9 -41 -15 -3 -10 26 -13 123 -13 97 0 126 3 123 13 -3 6 -21 13
-41 15 l-37 3 0 225 0 224 -80 0 c-44 0 -80 -4 -80 -9z"/>
<path d="M6600 830 c0 -5 15 -13 33 -18 l32 -8 0 -204 c0 -197 -1 -205 -20
-208 -47 -7 -65 -13 -65 -22 0 -6 50 -10 126 -10 96 0 125 3 122 13 -3 6 -20
14 -39 17 l-34 5 -3 223 -2 222 -75 0 c-42 0 -75 -4 -75 -10z"/>
<path d="M9336 451 c-22 -24 -24 -64 -6 -86 22 -26 81 -16 99 17 14 25 14 29
-5 55 -26 35 -64 41 -88 14z"/>
</g>
</svg>
